<svg xmlns="http://www.w3.org/2000/svg" viewBox="0 0 3072.07 2048"><defs><style>.cls-1{fill:#ffed00;}.cls-2{fill:#008026;}.cls-3{fill:#e40303;}.cls-4{fill:#ff8c00;}.cls-5{fill:#004dff;}.cls-6{fill:#750787;}.cls-7{fill:#613915;}.cls-8{fill:#74d7ee;}.cls-9{fill:#ffafc8;}.cls-10{fill:#fff;}</style></defs><g id="Layer_2" data-name="Layer 2"><g id="Layer_1-2" data-name="Layer 1"><polygon class="cls-1" points="1540.52 1024 3072.07 1024 3072.07 682.67 1199.18 682.67 1540.52 1024"/><polygon class="cls-2" points="1199.18 1365.33 3072.07 1365.33 3072.07 1024 1540.52 1024 1199.18 1365.33"/><polygon class="cls-3" points="516.52 0 857.85 341.33 3072.07 341.33 3072.07 0 516.52 0"/><polygon class="cls-4" points="1199.18 682.67 3072.07 682.67 3072.07 341.33 857.85 341.33 1199.18 682.67"/><polygon class="cls-5" points="857.85 1706.67 3072.07 1706.67 3072.07 1365.33 1199.18 1365.33 857.85 1706.67"/><polygon class="cls-6" points="516.52 2048 3072.07 2048 3072.07 1706.67 857.85 1706.67 516.52 2048"/><polygon points="1199.18 1365.33 1540.52 1024 1199.18 682.67 857.85 341.33 516.52 0 516.52 0 260.52 0 1284.52 1024 260.52 2048 516.52 2048 857.85 1706.67 1199.18 1365.33"/><polygon class="cls-7" points="260.52 0 0 0 1024 1024 0 2048 260.52 2048 1284.52 1024 260.52 0"/><polygon class="cls-8" points="0 0 0 265.48 758.52 1024 0 1782.52 0 2048 1024 1024 0 0"/><polygon class="cls-9" points="0 265.48 0 519.48 504.52 1024 0 1528.52 0 1782.52 758.52 1024 0 265.48"/><polygon class="cls-10" points="0 519.48 0 1528.52 504.52 1024 0 519.48"/></g></g></svg>