<svg xmlns="http://www.w3.org/2000/svg" viewBox="0 0 1012.43 881.53"><defs><style>.cls-1{stroke:#000;stroke-miterlimit:10;}</style></defs><g id="Layer_2" data-name="Layer 2"><g id="Layer_2-2" data-name="Layer 2"><path class="cls-1" d="M443.22,877.07l40.9-38a5.63,5.63,0,0,1,8.18.6c2.56,3.14,4.15,6,4.71,8.45a8.43,8.43,0,0,0,2.21,4.12l25,25.15a12.15,12.15,0,0,0,16.86.37l52.52-47.39a4.61,4.61,0,0,0,.27-6.49h0a4.6,4.6,0,0,0-6.52-.25L562,846.15a10.23,10.23,0,0,1-14.68-.84l-33.4-38.58a7,7,0,0,0-10-.57l-67.95,63a5.35,5.35,0,0,0-.35,7.55h0A5.36,5.36,0,0,0,443.22,877.07Z"/><path class="cls-1" d="M844.25,363.89c-56.72-25.38-94.73-68.28-122.7-120.59-19-35.46-46.55-65.69-80.9-86.6-42.92-26.1-87.1-35.34-132.81-24.5-24.61-6.53-51.4-5.09-80,3C372,150.85,325.26,189,297.57,240c-30.75,56.55-71.34,101.58-124.11,123.2a9.26,9.26,0,0,0-5.29,11.41c8.19,25.61,17.92,46.89,28.07,61.05a4.52,4.52,0,0,0,5.18,1.61c39.69-14.42,72.14-68.61,104.15-122.13a.53.53,0,0,1,.93.49c-32.62,71.61-67,126.33-99.95,131.34a5.31,5.31,0,0,0-4.45,6.18c6,33.31,27,49.16,54.73,54.35a28.33,28.33,0,0,0,26.48-9c26.83-30.4,42.48-61.66,52.93-91.18.81,29.4-8.87,62.51-36.13,92.15a17.18,17.18,0,0,0-.74,22.46C324,552.46,348.86,555.44,375.71,547a19.74,19.74,0,0,0,13.7-17.35c1.77-23.41.7-41.06-1.87-55.64a.53.53,0,0,1,.9-.47c18.15,18.39,31.81,41,40.62,68.07a5,5,0,0,0,5.17,3.44l8-.56a1.87,1.87,0,0,0,1.71-2.14c-1-6.39-1-12,.35-16.42a5.54,5.54,0,0,1,9.72-1.77c3.45,4.58,4.47,10.86,4.34,17.92a2.46,2.46,0,0,0,2.25,2.5,74.66,74.66,0,0,0,14.19,0,2.47,2.47,0,0,0,2.21-2.64,41,41,0,0,1,.77-12.26A6.63,6.63,0,0,1,490,528a23.1,23.1,0,0,1,2.36,12,2.46,2.46,0,0,0,2.19,2.57,126.88,126.88,0,0,0,27.36.05,2.42,2.42,0,0,0,2.13-2.5,26.93,26.93,0,0,1,2-11.48,6.65,6.65,0,0,1,12.32,0,24.62,24.62,0,0,1,1.27,13,2.44,2.44,0,0,0,2.24,2.8,96.11,96.11,0,0,0,14,0,2.46,2.46,0,0,0,2.27-2.46,39.62,39.62,0,0,1,3.27-16.47,5.57,5.57,0,0,1,10.24.23c1.9,4.84,2.1,10.75,1.09,17.42a1.78,1.78,0,0,0,1.77,2h9a1.8,1.8,0,0,0,1.68-1.16c11.27-30,26.9-55.57,44-73.84-2,15.13-1.67,36.5-1.25,59.56a19.51,19.51,0,0,0,14.93,18.63c43.84,10.46,65.58-4.16,77.28-28.19A9.84,9.84,0,0,0,718,508.91c-16.78-16.06-23.58-42.75-25.44-66.83a.89.89,0,0,1,1.72-.38c12.84,32.39,28,53.89,48.67,64.18a22.15,22.15,0,0,0,15.61,1.59c48.53-12.88,53.1-32,55.22-55.26a4.34,4.34,0,0,0-4.09-4.73C780,445.9,744.45,390.55,707.24,305.3c44,79,63.61,110.61,105.75,132.07a7.23,7.23,0,0,0,9.59-2.92c9.53-17.15,18.26-37.15,26.52-58.79A9.29,9.29,0,0,0,844.25,363.89ZM472.74,382c-11.24,36-65.75,59-81.5,42.28-10.9-9.9-10-53.14,1.65-55a1.6,1.6,0,0,1,.68.09c30.67,8.87,41.67,8.87,77.87,10.82A1.4,1.4,0,0,1,472.74,382Zm65.82,108.87a7.3,7.3,0,0,1-3.81,6.06,11.23,11.23,0,0,1-6.51,1.35c-2.1.23-4.12-1.95-4.6-4-2.42-10.47-6.46-18.48-15.4-19-5.91,0-13.23,10.8-14.69,19.5,0,.11,0,.21-.07.32a4.15,4.15,0,0,1-2.62,2.73c-3.38,1.24-6.74,1.46-10-1.28a6.9,6.9,0,0,1-2.58-4.69,25.71,25.71,0,0,1-.38-12.05c.2-.83.32-1.67.51-2.5a5.42,5.42,0,0,1,.39-1.11l20.94-42.84a9.33,9.33,0,0,1,16.76.16L536.56,477A32.7,32.7,0,0,1,538.56,490.89Zm87.58-66.09c-15.75,16.73-70.27-6.27-81.5-42.28a1.39,1.39,0,0,1,1.3-1.77c36.2-1.95,47.2-1.95,77.86-10.83a1.64,1.64,0,0,1,.69-.08C636.16,371.66,637,414.89,626.14,424.8Z"/><path class="cls-1" d="M544.11,116.11c2.32-6.72,1.54-14-2.35-21.94a6.52,6.52,0,0,0-4.77-3.5c-14.26-2.4-37-2.1-60,.43a3.39,3.39,0,0,0-2.62,1.82c-5.26,10.12-6,17.53-2.66,22.52a4.68,4.68,0,0,0,3.48,2c13.82,1.35,24.65,3.48,32.17,6.46a2.31,2.31,0,0,0,1.75,0c8.42-3.38,19.53-4.89,31.88-5.53A3.48,3.48,0,0,0,544.11,116.11Z"/><path class="cls-1" d="M453.2,96.3C450.93,65.7,347-7.45,302.38,1.27a.5.5,0,0,0-.25.13c-11.86,11.48-5.74,112,48.11,158.9,14.89-9.93,67.26-37.61,96.38-41.91a.45.45,0,0,0,.31-.71c-3-4.38-28.19-27-52.16-35.83a.46.46,0,0,1,.12-.89c7.33-.6,37.46.57,57.58,15.75A.46.46,0,0,0,453.2,96.3Z"/><path class="cls-1" d="M713.32,1.34c11.86,11.49,5.74,112-48.1,158.9-14.9-9.93-67.26-37.6-96.39-41.91a.45.45,0,0,1-.31-.71c3-4.38,28.19-26.95,52.17-35.83a.45.45,0,0,0-.13-.88c-7.33-.61-37.46.57-57.57,15.74a.46.46,0,0,1-.74-.41c2.27-30.59,106.24-103.74,150.82-95"/><path class="cls-1" d="M319,180.21c-12.39-34.57-45.82-68.48-97.54-90.07a10.8,10.8,0,0,0-14.9,10.93c3.36,41.46-20.63,91.27-63.55,117.59a70.18,70.18,0,0,0-30,38.47c-13,40.76-54.36,72.4-104.34,80.57a9.68,9.68,0,0,0-7,14.08c23,43.14,55.53,74.57,105.93,82.94a7.09,7.09,0,0,0,7.87-9.16c-10.49-33.29,5.64-80.25,53.19-110.44a4.78,4.78,0,0,1,5.51.23l20.68,15.91a5.23,5.23,0,0,0,5.76.41c14.59-8.3,28.16-21.44,41.57-36.08a3,3,0,0,0-.28-4.29l-26.12-22a6.92,6.92,0,0,1-2.11-7.46c15.6-46.82,55.09-78,100.57-75.21A4.79,4.79,0,0,0,319,180.21Z"/><path class="cls-1" d="M607.8,564.55a4.5,4.5,0,0,0,2.44-4V518.05a.54.54,0,0,0-1-.2l-15.67,38.3a4.4,4.4,0,0,1-4.67,2.7l-47.3-6.24a2.17,2.17,0,0,0-2.45,2c-.61,8.83-2.61,13.59-6.06,14.56a4.2,4.2,0,0,1-2.95-.34c-5.54-2.77-6.35-10.12-6-16.37a2.05,2.05,0,0,0-2-2.17H497.5a2.06,2.06,0,0,0-2,2.22q.84,10.89-4.18,15.06a4.46,4.46,0,0,1-5.8-.13c-3.13-2.77-5-7.25-6-13.1a2.18,2.18,0,0,0-2.38-1.82L426.84,558a3.52,3.52,0,0,1-3.62-2.14l-17-40.58V560a5.54,5.54,0,0,0,2.85,4.84l87,44.92a6.92,6.92,0,0,0,3.19.77l18,0a7,7,0,0,0,3.18-.78Z"/><path class="cls-1" d="M693.44,175.12C705.83,140.55,739.25,106.64,791,85A10.81,10.81,0,0,1,805.88,96c-3.35,41.45,20.64,91.26,63.55,117.58a70.23,70.23,0,0,1,30,38.48c13,40.76,54.36,72.39,104.33,80.56a9.69,9.69,0,0,1,7,14.09c-23,43.14-55.52,74.56-105.92,82.93A7.08,7.08,0,0,1,897,420.5c10.57-33.5-6.47-81.74-54.7-111.94a3.37,3.37,0,0,0-3.91.24l-25.6,20.65a5.29,5.29,0,0,1-6.89-.21l-37.16-33.85a5.3,5.3,0,0,1,.17-8l27.79-23.24a6.9,6.9,0,0,0,2.11-7.46c-15.59-46.78-55-78-100.48-75.21A4.8,4.8,0,0,1,693.44,175.12Z"/><path class="cls-1" d="M316.18,752.54c-17.59-16.55-36.33-37.3-45.5-52.77a12,12,0,0,1,5.1-16.93c34.81-16.65,86.15-58,133.2-99.75a8.4,8.4,0,0,1,9.35-1.24l50.75,25.37a4.36,4.36,0,0,1,.75,7.34c-67.91,53.54-137,109.59-148.16,136.75A3.41,3.41,0,0,1,316.18,752.54Z"/><path class="cls-1" d="M699.48,751.54c16.85-12.85,34.89-32.81,42.61-50.06a9.4,9.4,0,0,0-4.66-12.39C702.15,673,647.8,628.2,599.08,584.82a6.12,6.12,0,0,0-6.35-1.13c-21.24,8.48-39.17,17.83-52.11,27.26a4.28,4.28,0,0,0-.18,6.78C603.5,669.11,670.9,721.14,687.69,749.27A8,8,0,0,0,699.48,751.54Z"/><path class="cls-1" d="M131.84,691.63,195.69,677a11.79,11.79,0,0,1,14.14,8.91l.07.33A11.79,11.79,0,0,1,201,700.27l-63.92,14.35a11.79,11.79,0,0,1-14-8.75h0A11.79,11.79,0,0,1,131.84,691.63Z"/><path class="cls-1" d="M164.43,640.14l6.3-27.33a7.88,7.88,0,0,1,8.17-6.09h0a7.87,7.87,0,0,1,7.18,9.68l-10.29,43.36a10,10,0,0,1-8.2,7.56h0a10,10,0,0,1-9.87-4.41L133,625.08a6.38,6.38,0,0,1,2.28-9.08h0a6.37,6.37,0,0,1,8.23,1.87L160.14,641A2.4,2.4,0,0,0,164.43,640.14Z"/><path class="cls-1" d="M120.43,586.43l62-16.52A10.48,10.48,0,0,1,195.15,577h0a10.47,10.47,0,0,1-7.26,13.11l-62.06,17a10.7,10.7,0,0,1-12.88-6.9h0A10.71,10.71,0,0,1,120.43,586.43Z"/><path class="cls-1" d="M183,491.21l-40.47-55.85a6.78,6.78,0,0,0-11.8,1.52L102,510.83a6.75,6.75,0,0,0,1.9,7.59l45.3,38.83a6.78,6.78,0,0,0,10.66-2.51l23.92-56.93A6.76,6.76,0,0,0,183,491.21ZM144,537.9l-24.19-22.26a1.86,1.86,0,0,1,.81-3.18L142.53,507a2.24,2.24,0,0,1,2.79,2.11l.88,27.79A1.33,1.33,0,0,1,144,537.9Zm12.91-48.51-8.18,2a3.37,3.37,0,0,1-4.13-2.64l-7.38-38.52a.86.86,0,0,1,1.59-.6L159,484.42A3.38,3.38,0,0,1,156.88,489.39Z"/><path class="cls-1" d="M520.55,701.61l9.18,68.87a7.19,7.19,0,0,1-2.39,6.36l-85.08,74.44-.06.06-7.36,8.93a6,6,0,0,1-8,.85h0a6,6,0,0,1,0-9.67l8.87-3.54a8.07,8.07,0,0,0,2.69-1.77l21.53-21.53a4.34,4.34,0,0,0,1.25-3.16l-.9-26.77a3.19,3.19,0,0,0-1.08-2.29l-14-12.24a1.22,1.22,0,0,0-1.76.15l-5.39,6.76a3.56,3.56,0,0,1-4.37,1l-.07,0a3.68,3.68,0,0,1-1.63-5c3.76-7.43,6-14.88,6.24-22.36a2.85,2.85,0,0,1,2.45-2.72h0a10.7,10.7,0,0,1,8.16,2.19l8.81,6.92a1,1,0,0,0,1.58-.77v-12a2.52,2.52,0,0,0-.73-1.76l-11.44-11.44a1.64,1.64,0,0,0-2-.28A14.72,14.72,0,0,0,440,746a1.63,1.63,0,0,1-2.11.59l-1.42-.71a1.52,1.52,0,0,1-.74-1.88l8.3-16.29a3,3,0,0,0,.3-.91c.26-1.72,1.29-7.74,3.05-11.22a2.59,2.59,0,0,1,3.83-.91l10.57,7.55a1,1,0,0,0,1.61-.76l.82-11.59a2.22,2.22,0,0,1,.39-1.1L476,692.09a2.8,2.8,0,0,0-.2-3.42L457.6,667.86a1.49,1.49,0,0,0-2.41.23L442,690.56a5.85,5.85,0,0,1-7.68,2.28h0a5.86,5.86,0,0,1-2.71-7.71l26.47-56.39a4.25,4.25,0,0,1,3.84-2.44h0a4.23,4.23,0,0,1,3.56,1.94l18.07,27a4.18,4.18,0,0,0,6.27.8L510.2,637.9a5.72,5.72,0,0,1,7.86.23h0a5.72,5.72,0,0,1,.86,7L494,685.38a12.08,12.08,0,0,0-1.8,6.35V793.21a1.19,1.19,0,0,0,2.08.8l7-7.68a3.37,3.37,0,0,0,.87-2.42l-3.93-81.61,19.5-20.44a3.17,3.17,0,0,1,3.5-.74l22.24,11.06a3.87,3.87,0,0,1,2.39,4.07h0a3.88,3.88,0,0,1-5.33,3.11c-6.66-5.82-12.91-7.32-18.52-2A5,5,0,0,0,520.55,701.61Z"/><path class="cls-1" d="M780.41,700.62l52.39,7.52a7.11,7.11,0,0,1,5.86,8.52h0a7.11,7.11,0,0,1-8.13,5.52l-52.31-8a6.84,6.84,0,0,1-5.26-9.21h0A6.83,6.83,0,0,1,780.41,700.62Z"/><path class="cls-1" d="M788.81,683.23l7,1.16a5.8,5.8,0,0,0,6.63-4.47l17.64-79.37a4.65,4.65,0,0,0-4.13-5.64c-2.42-.21-5.41-.51-8.38-.92a4.24,4.24,0,0,0-4.78,3.72c-3,27.59-9.38,52.52-17.83,79.24A4.88,4.88,0,0,0,788.81,683.23Z"/><path class="cls-1" d="M830,633.76l17-21.37a1.44,1.44,0,0,0-.83-2.3l-15.76-3.33a4.53,4.53,0,0,1-3.55-3.44.36.36,0,0,1,0-.1,4.58,4.58,0,0,1,4.78-5.28l26,1.08a5.24,5.24,0,0,1,4.23,2.48h0A11.88,11.88,0,0,1,860.22,616l-15,15.26,6.72,6.21a12.79,12.79,0,0,1,3.43,13.56c-3.71,10.79-6,20.8-5.32,29.14a12,12,0,0,1-3.31,9.51l-.4.4a15.28,15.28,0,0,1-11,4.12c-6.51-.15-12.62-.67-17.52-2.34a4.49,4.49,0,0,1-2.44-2c-4.57-7.73-5.73-15,1.19-21a2.73,2.73,0,0,1,1.81-.66h4.7a1.84,1.84,0,0,1,1.81,1.58l.3,8.45a2.34,2.34,0,0,0,1.65,2.17c2.67.78,7.72.35,8.39-1.12l8.17-25.43a4.23,4.23,0,0,0-1.15-4.41l-11.51-9.32A4.56,4.56,0,0,1,830,633.76Z"/><path class="cls-1" d="M818.18,567.37l36,.84a9.52,9.52,0,0,1,6.77,3l7.09,7.67a6.65,6.65,0,0,1-6,11.07l-48.87-8.25a5.14,5.14,0,0,1-3.07-8.4l3.21-3.8A6.17,6.17,0,0,1,818.18,567.37Z"/><path class="cls-1" d="M823.8,483.5l4,65.78a8.22,8.22,0,0,0,7.43,7.68l16,1.51a6.14,6.14,0,0,0,6.22-3.68l27.19-63.09a9.4,9.4,0,0,0-4.69-12.24h0a9.39,9.39,0,0,0-12.7,5.14l-18,46.53a1.26,1.26,0,0,1-2.43-.36L843,482.16a9.64,9.64,0,0,0-10.61-8.83h0A9.63,9.63,0,0,0,823.8,483.5Z"/><path class="cls-1" d="M831.79,442.54c19.87,1.95,38.56,4.79,55.18,9.15a4.73,4.73,0,0,1,3.3,3.09,11.6,11.6,0,0,1-1,9.75,6.89,6.89,0,0,1-6.78,3.33c-16.51-1.92-33.19-4.26-51.35-10.45a5.22,5.22,0,0,1-3-2.71,11.17,11.17,0,0,1-.43-9.71A4.11,4.11,0,0,1,831.79,442.54Z"/></g></g></svg>