<svg xmlns="http://www.w3.org/2000/svg" viewBox="0 0 3625.38 3437.57"><defs><style>.cls-1{fill:#e04a7d;}</style></defs><g id="Layer_2" data-name="Layer 2"><g id="Layer_1-2" data-name="Layer 1"><path class="cls-1" d="M3610.81,2194.76c-60.13-110.08-413.5-555-615.16-778.44s-474.09-386.09-474.09-393.14S2695,992.07,2726.46,964s77.7-278.44,77.7-399.62-28.68-445.41-145.23-446.8-474.55,391.19-796.47,391.19S1131.2-14.27,1095.12.3,923.53,260.93,875.17,436s-58,584.45,41.65,589.77,123.49-24.28,132.51-25.67-27.54,37.1-44.4,55.5S70.63,1859.89,29.46,1928.8-.14,2030.56,7.72,2075s94.82,158.65,108.23,161,197-286.3,207.22-280.29-14.15,65.59-26.83,99.91-140.15,282.14-155.87,321-14.34,107.31,5.08,152.63S340.28,2718.8,352.77,2715.1s297.4-532.83,304.34-535.61,41.17,13,44.4,20.36c2.12,4.84-180.38,521.73-199.35,600.36s-7.4,123.49,26.83,178.53,183.16,118,200.51,111,297.63-1191.47,300.41-1191.47,74,105.45,151.71,105.45,161.19-179.92,175.06-174.6S1318.29,2050,1330.78,2050s620.25-3.68,698.19-3.68,87.86-69.92,92.5-87-.92-153.79,11.1-194.26,22.67-50.42,29-48.22S2231.78,1838.38,2312,1939s325.85-73.54,336.72-23.59,233.58,1295.54,242.37,1320.52,229.41-97.6,255.31-245.61S3001.66,2543,3006.28,2530.55s27.73-20.12,40.3-3.17,200.57,327.7,212.71,347.75,169.74-118.86,165.58-217.38-191.49-433.85-189.63-448.65,14.32-17.46,24.05-16.65,256.56,362.71,261.56,370S3670.94,2304.84,3610.81,2194.76Z"/><path class="cls-1" d="M2582.15,2168.39c-13.65-31.22-35.62-48.91-60.59-61S2229,2016.15,2221.84,2014s10.86,151.43-131.83,151.08-1003.47-70-1012-70.72-80,164.66-105.46,281.22-11.1,256.24,48.11,379.27,230.05,290.12,253.46,284.91,198.42-77.35,201.66-74S1499.26,3344,1501,3344s112.39-104.87,115.4-104.87,63.83,133.66,118.41,133.66,100.37-103.6,101.75-103.6,107.42,168.36,122.11,168.36,79-118.41,88.81-118.41,121.81,72.21,121.81,66-3.1-402.92-3.1-405.7,166.32,47.53,240.21,38.16,149.86-35.38,210.56-114.47,65.56-190.1,61.4-264.34S2595.79,2199.61,2582.15,2168.39Zm-1174.82,597.7c-143.62,11.45-237.28-79.67-286.31-225.82s-12-376-.92-376,616.09,349,638.29,362.16S1550.94,2754.65,1407.33,2766.09Zm597.81,212.19c-4.85,20.12-34.45,82.33-56.66,82.33s-238.31-104.42-229.29-172.76,163.73-222.7,169.63-222.7,82.56,139.22,104.07,184.55S2010,2958.16,2005.14,2978.28Zm222.25-229.88c-80,0-225.71-116.09-222.48-135.06s24-104.53,87.88-161.42,385.75-304.34,393.15-304.34,29.24,52.71,35.62,80,22.23,84.78,23.58,158.64C2550.23,2662.83,2307.41,2748.4,2227.39,2748.4Z"/></g></g></svg>